<?xml version="1.0" encoding="UTF-8"?>
<svg width="20px" height="27px" viewBox="0 0 20 27" version="1.1" xmlns="http://www.w3.org/2000/svg" xmlns:xlink="http://www.w3.org/1999/xlink">
    <!-- Generator: Sketch 51.2 (57519) - http://www.bohemiancoding.com/sketch -->
    <title>Fill 1</title>
    <desc>Created with Sketch.</desc>
    <defs></defs>
    <g id="Symbols" stroke="none" stroke-width="1" fill="none" fill-rule="evenodd">
        <g id="Nav-Black" transform="translate(-30.000000, -22.000000)" fill="#000000">
            <g id="jam3_new_logo" transform="translate(30.000000, 22.000000)">
                <path d="M16.557853,0 L5.40664232,10.8688792 L8.7629529,14.1402131 L19.9142215,3.27133396 L16.557853,0 Z M0.178902006,4.75143832 L8.88071412,4.75143832 L8.88071412,0.125060148 L0.178902006,0.125060148 L0.178902006,4.75143832 Z M16.9872873,10.2834011 C18.9351575,12.1387989 20.1102197,14.7618988 19.991821,17.6520648 C19.7871877,22.6475794 15.7536343,26.6731718 10.633919,26.9809078 C4.82386338,27.3302177 0,22.8407617 0,17.2532166 L4.74620589,17.2532166 C4.74620589,20.267652 7.41849303,22.6736759 10.5799644,22.3436843 C13.0754359,22.0831141 15.0111938,20.1561485 15.2325756,17.7193961 C15.3814578,16.08034 14.7360313,14.5850974 13.6309767,13.5542832 L16.9867657,10.2834011 C16.9869396,10.2832881 16.9871135,10.2832881 16.9872873,10.2834011 Z" id="Fill-1"></path>
            </g>
        </g>
    </g>
</svg>